<?xml version="1.0" encoding="UTF-8"?><svg xmlns="http://www.w3.org/2000/svg" viewBox="0 0 20.9 27.94"><defs><style>.d{fill:#fff;}.e{fill:#e7601c;}</style></defs><g id="a"/><g id="b"><g id="c"><g><g><path class="d" d="M14.08,27.44c-1.4,0-2.59-.48-3.54-1.42-.19-.2-.36-.4-.52-.62-.11,.16-.24,.32-.38,.47-.82,.86-2,1.29-3.52,1.29h-.78V13.18l.6,.12s.06,0,.09,0c.06,0,.08,0,.11-.01,.1-.03,.19-.08,.27-.17,.17-.16,.31-.4,.44-.73,.46-1.16,.68-2.79,.77-3.66l.18-1.7,.77,1.53c.28,.62,.56,1.15,.86,1.62l.12,.18c.33,.53,.57,.89,.76,.96l.58-.26v1.26c.88-.71,2.07-.93,2.77-.93,2.05,0,3.72,.71,4.94,2.12,1.2,1.39,1.81,3.37,1.81,5.91,0,1.67-.27,3.12-.81,4.31-.55,1.21-1.31,2.14-2.25,2.77-.95,.63-2.05,.95-3.26,.95Zm-3.19-3.86c.15,.35,.32,.67,.52,.93,.47,.63,.98,.94,1.53,.94,.38,0,.74-.38,1.06-1.13,.38-.89,.57-2.54,.57-4.9s-.21-4.17-.62-5.04c-.48-1.02-1.05-1.13-1.44-1.13s-.79,.16-1.21,.47c-.11,.08-.25,.21-.42,.37v9.5Z"/><path class="e" d="M8.12,8.78s.01,.03,.02,.05c.23,.53,.52,1.08,.87,1.61,.06,.09,.11,.17,.16,.25,.4,.63,.66,1.04,1.07,1.12,.04,0,.09,.01,.14,.01h.02v11.85c.17,.44,.38,.81,.63,1.14,.57,.76,1.21,1.14,1.93,1.14,.61,0,1.11-.48,1.52-1.43,.41-.96,.61-2.66,.61-5.1s-.22-4.31-.67-5.26c-.44-.95-1.07-1.42-1.89-1.42-.49,0-.99,.19-1.51,.57-.15,.11-.36,.3-.63,.57,.5-1.57,2.36-1.99,3.27-1.99,1.91,0,3.43,.65,4.56,1.95,1.13,1.3,1.69,3.16,1.69,5.58,0,1.61-.26,2.98-.77,4.11-.51,1.13-1.2,1.98-2.07,2.56-.87,.58-1.87,.87-2.98,.87-1.27,0-2.33-.43-3.18-1.28-.36-.38-.67-.8-.94-1.28-.13,.42-.36,.8-.68,1.14-.72,.76-1.77,1.14-3.15,1.14h-.28V13.78c.05,.01,.11,.02,.17,.02,.08,0,.17-.01,.26-.04,.17-.05,.34-.15,.49-.3,.21-.2,.39-.5,.55-.9,.48-1.22,.71-2.9,.81-3.79m-.64-3.5l-.36,3.4c-.07,.68-.29,2.38-.74,3.53-.13,.34-.25,.49-.31,.55-.04,.04-.06,.05-.07,.06l-1.2-.24,.04,1.22v13.87h1.28c1.66,0,2.97-.49,3.88-1.45l.02-.02c.05,.06,.1,.11,.15,.16,1.06,1.06,2.37,1.59,3.91,1.59,1.31,0,2.5-.35,3.53-1.03,1.03-.68,1.85-1.68,2.43-2.98,.57-1.25,.86-2.77,.86-4.52,0-2.66-.65-4.76-1.94-6.24-1.32-1.52-3.11-2.29-5.31-2.29-.58,0-1.45,.14-2.27,.53v-.98l-.97,.32c-.11-.14-.27-.39-.41-.6l-.05-.08-.12-.18c-.29-.45-.55-.94-.79-1.48-.02-.04-.03-.06-.04-.09l-1.53-3.05h0Zm3.91,9.02c.11-.1,.18-.16,.22-.19,.33-.25,.64-.37,.91-.37,.18,0,.59,0,.98,.85,.26,.56,.57,1.85,.57,4.83s-.29,4.14-.53,4.71c-.26,.6-.5,.83-.6,.83-.14,0-.58,0-1.13-.74-.16-.21-.3-.46-.43-.73V14.29h0Z"/></g><g><path class="d" d="M7.12,6.23c-.18,0-.34-.04-.49-.13-.4-.23-.7-.79-.9-1.67-.09-.42,.1-.85,.47-1.05,.35-.19,.66-.28,.93-.28,.82,.02,1.12,.97,1.29,1.54,.13,.42-.07,.94-.5,1.29-.14,.11-.43,.3-.8,.3h0Z"/><path class="e" d="M7.12,3.6h.02c.4,.01,.61,.59,.8,1.19,.07,.23-.07,.54-.33,.75-.13,.11-.31,.19-.49,.19-.08,0-.16-.02-.24-.06-.26-.15-.5-.64-.67-1.35-.04-.2,.05-.4,.22-.5,.27-.15,.51-.22,.69-.22m0-1c-.36,0-.75,.12-1.17,.34-.57,.31-.86,.96-.72,1.6,.24,1.03,.62,1.7,1.15,2,.22,.13,.48,.2,.74,.2,.39,0,.78-.15,1.11-.41,.6-.48,.86-1.2,.66-1.83-.18-.58-.54-1.76-1.59-1.88h-.18Z"/></g><g><path class="d" d="M3.44,9.8c-.13,0-.26-.02-.38-.05-1.09-.27-1.85-1.66-2.17-2.25l-.1-.17c-.31-.55-.42-2.16-.08-3.33,.21-.72,.56-1.21,1.04-1.47,.26-.14,.58-.21,.94-.21,1.26,0,2.86,.85,3.49,1.22l.35,.2-.13,.38s-.02,.09,0,.14c.03,.12,.06,.26,.11,.39l.03,.12,.05,.14c.14,.35,.27,.49,.34,.55l.29,.24-.16,.35c-.07,.16-.21,.45-.41,.81-.27,.48-.56,.93-.88,1.32-.43,.54-.88,.98-1.35,1.29-.32,.21-.66,.32-.99,.32h0Z"/><path class="e" d="M2.69,2.83c1.18,0,2.8,.9,3.24,1.15-.04,.13-.05,.27-.02,.4,.03,.14,.07,.28,.12,.43-.54,.26-1.04,.33-1.39,.33-.3,0-.49-.05-.49-.05l-.04,.15-.04,.15s.24,.06,.58,.06c.38,0,.9-.07,1.48-.35,.12,.3,.28,.58,.48,.75-.07,.15-.2,.43-.39,.78-.21,.37-.49,.82-.83,1.25-.35,.44-.76,.87-1.24,1.18-.24,.16-.48,.24-.71,.24-.09,0-.17-.01-.26-.03-.87-.22-1.56-1.47-1.85-2.01-.04-.07-.07-.13-.1-.18-.21-.36-.36-1.82-.04-2.94,.17-.59,.44-.98,.8-1.17,.2-.11,.44-.15,.71-.15m0-1c-.44,0-.84,.09-1.17,.27-.61,.32-1.04,.92-1.29,1.77-.38,1.3-.24,3.07,.13,3.71l.09,.17c.58,1.07,1.34,2.21,2.49,2.49,.17,.04,.34,.06,.5,.06,.43,0,.86-.14,1.27-.41,.51-.34,1-.81,1.47-1.4,.33-.41,.63-.88,.92-1.39,.16-.28,.3-.56,.43-.85l.32-.7-.59-.49h0s-.08-.08-.19-.35l-.05-.12-.03-.1c-.03-.1-.06-.2-.08-.29l.23-.7-.7-.41c-.66-.39-2.36-1.29-3.74-1.29h0Z"/></g><g><path class="d" d="M6.02,13.99c-.1,0-.2-.01-.3-.04-.14-.03-.24-.09-.31-.13l-4.24-1.67,2.22-3.02,.2-.03c.15-.02,.31-.09,.46-.19,.38-.25,.77-.61,1.14-1.06,.42-.52,.75-1.08,.95-1.45,.12-.23,.22-.42,.27-.55l.63-1.41,.23,1.1h.31l.13,.39c.03,.12,.07,.32,.14,.57,.09,.34,.25,.87,.49,1.48l.04,.11v.11c-.04,.46-.25,2.85-.88,4.44-.29,.73-.67,1.17-1.15,1.3-.1,.03-.21,.05-.32,.05h0Z"/><path class="e" d="M7.22,6.03c.03,.13,.08,.34,.15,.6,.11,.4,.27,.94,.5,1.53-.02,.29-.22,2.73-.84,4.3-.22,.57-.51,.92-.83,1.01-.06,.02-.12,.03-.18,.03-.06,0-.12,0-.17-.02-.13-.03-.21-.09-.21-.09l-3.68-1.45,1.71-2.33c.22-.04,.45-.13,.67-.27,.48-.31,.89-.73,1.24-1.16h0c.44-.54,.77-1.1,1.01-1.53,.13-.24,.23-.45,.29-.58,.03,.13,.06,.34,.09,.58,.06,.48,.08,1.1-.07,1.55l.29,.1c.16-.5,.14-1.15,.08-1.65-.03-.24-.06-.45-.09-.6,.01,0,.03,0,.04,0m0-3.22l-1,2.22h-.26l.08,.41-.09,.2c-.06,.12-.14,.3-.26,.52-.27,.51-.58,.98-.9,1.37l-.06,.07c-.32,.38-.64,.68-.96,.89-.1,.07-.19,.11-.27,.12l-.41,.06-.24,.33-1.71,2.33-.77,1.05,1.21,.48,3.6,1.42c.1,.06,.24,.12,.41,.16,.13,.04,.28,.05,.42,.05,.16,0,.32-.02,.47-.07,.63-.18,1.13-.72,1.47-1.6,.66-1.67,.87-4.11,.91-4.59l.02-.23-.08-.21c-.23-.59-.38-1.1-.47-1.43-.07-.25-.11-.44-.14-.55l-.19-.88-.34,.04-.44-2.16h0Z"/></g><g><path class="d" d="M10.3,12.01l-.12-.02c-.47-.09-.75-.53-1.17-1.19l-.16-.26c-.87-1.35-1.38-2.8-1.65-3.78-.09-.32-.15-.57-.18-.71l-.09-.39,.36-.17,.23-.15s.05-.05,.07-.08l.33-.38,.38,.33c.32,.28,1.99,1.67,3.22,1.93,.14,.03,.28,.04,.39,.04,.07,0,.15,0,.21-.02l.33-.05,.18,.28c.23,.36,.69,.69,.82,.79l.4,.28-.27,.41c-.32,.49-1.44,2.14-2.31,2.77-.33,.24-.61,.36-.88,.37h-.11Z"/><path class="e" d="M7.99,5.59c.47,.4,2.14,1.77,3.44,2.04,.18,.04,.34,.06,.5,.06,.1,0,.2-.01,.29-.03,.26,.42,.73,.77,.96,.93-.31,.46-1.39,2.06-2.19,2.64-.25,.18-.44,.27-.6,.27h-.03s-.04,0-.06,0c-.28-.05-.51-.42-.87-.98-.05-.08-.1-.17-.16-.25-.86-1.33-1.34-2.77-1.58-3.64-.09-.31-.14-.55-.17-.68l.04-.02c.09,.16,.26,.43,.47,.71,.32,.42,.74,.88,1.16,1l.09-.29c-.25-.08-.53-.33-.79-.63-.27-.32-.52-.69-.67-.94,.06-.05,.12-.11,.17-.17m-.11-1.41l-.65,.76s-.02,.03-.04,.04l-.14,.08-.69,.35,.18,.75c.03,.14,.09,.4,.18,.73,.28,1.01,.8,2.51,1.7,3.92,.06,.09,.11,.17,.15,.24,.47,.73,.83,1.3,1.53,1.43,.07,.01,.16,.02,.25,.02h.09c.36-.02,.73-.17,1.14-.47,.91-.66,2.01-2.24,2.44-2.89l.54-.82-.8-.56c-.3-.21-.57-.46-.68-.64l-.35-.56-.66,.11s-.08,.01-.13,.01c-.08,0-.18-.01-.29-.03-.86-.18-2.15-1.09-3-1.82l-.76-.65h0Z"/></g><g><path class="d" d="M11.91,7.88c-.17,0-.34-.02-.52-.06-1.31-.28-2.92-1.57-3.56-2.11l-.3-.25,.18-.35c.04-.07,.07-.17,.04-.27l-.1-.32c-.04-.12-.16-.47-.34-.65l-.35-.35,.34-.35c.77-.8,2.16-2.2,2.86-2.52,.22-.1,.46-.16,.7-.16,.74,0,1.44,.49,1.94,1.33,1.07,1.83,1.5,3.16,1.26,3.94-.15,.52-.63,2.11-2.16,2.11Z"/><path class="e" d="M10.87,1c.54,0,1.1,.39,1.51,1.09,.97,1.66,1.4,2.92,1.22,3.54-.25,.83-.66,1.75-1.68,1.75-.13,0-.27-.01-.42-.05-1.25-.26-2.92-1.65-3.33-2,.1-.2,.14-.42,.08-.64v-.04c.38-.07,1.29-.31,1.81-1.06l-.25-.17c-.47,.68-1.34,.88-1.66,.94-.1-.3-.25-.63-.46-.84,.44-.46,2.04-2.1,2.71-2.41,.16-.07,.32-.11,.49-.11M10.87,0h0c-.31,0-.62,.07-.91,.2-.73,.34-2.04,1.62-3.01,2.63l-.68,.71,.69,.69s.1,.11,.22,.46l.06,.18v.03h0l-.34,.67,.59,.52c.66,.57,2.36,1.92,3.78,2.22,.21,.04,.42,.07,.62,.07,1.27,0,2.16-.83,2.64-2.47,.1-.34,.41-1.39-1.31-4.33C12.65,.58,11.79,0,10.87,0h0Z"/></g></g><g><path class="d" d="M18.21,13.83c-1.13-1.3-2.65-1.95-4.56-1.95-.91,0-2.77,.42-3.27,1.99,.26-.27,.47-.46,.63-.57,.51-.38,1.01-.57,1.51-.57,.81,0,1.44,.47,1.89,1.42,.44,.95,.67,2.7,.67,5.26s-.2,4.14-.61,5.1c-.41,.96-.91,1.43-1.52,1.43-.72,0-1.36-.38-1.93-1.14-.25-.32-.46-.7-.63-1.14V11.82h-.02s-.09,0-.14-.01c-.41-.08-.67-.49-1.07-1.12-.05-.08-.1-.17-.16-.25-.34-.53-.63-1.09-.87-1.61,0-.02-.01-.03-.02-.05-.09,.9-.32,2.58-.81,3.79-.15,.39-.34,.69-.55,.9-.15,.15-.31,.25-.49,.3-.09,.03-.18,.04-.26,.04-.06,0-.12,0-.17-.02v12.87h.28c1.38,0,2.43-.38,3.15-1.14,.32-.34,.55-.72,.68-1.14,.26,.47,.58,.9,.94,1.28,.85,.85,1.91,1.28,3.18,1.28,1.12,0,2.11-.29,2.98-.87,.87-.58,1.56-1.43,2.07-2.56,.51-1.13,.77-2.5,.77-4.11,0-2.42-.56-4.28-1.69-5.58Z"/><path class="d" d="M6.88,5.67c.24,.14,.54,.02,.73-.13,.27-.21,.4-.52,.33-.75-.18-.6-.4-1.18-.8-1.19h-.02c-.19,0-.43,.08-.69,.22-.17,.09-.27,.3-.22,.5,.16,.71,.41,1.2,.67,1.35Z"/><path class="d" d="M3.18,9.27c.33,.08,.65,.01,.98-.21,.47-.31,.89-.74,1.24-1.18,.34-.43,.62-.88,.83-1.25,.19-.35,.32-.63,.39-.78-.2-.17-.36-.44-.48-.75-.58,.27-1.11,.35-1.48,.35-.34,0-.56-.06-.58-.06l.04-.15,.04-.15s.86,.22,1.88-.28c-.04-.15-.08-.29-.12-.43-.03-.14-.02-.28,.02-.4-.53-.31-2.84-1.59-3.95-1-.36,.19-.63,.58-.8,1.17-.33,1.12-.17,2.58,.04,2.94,.03,.05,.06,.11,.1,.18,.29,.54,.98,1.79,1.85,2.01Z"/><path class="d" d="M6.2,13.47c.32-.09,.6-.44,.83-1.01,.62-1.56,.82-4.01,.84-4.3-.23-.6-.4-1.13-.5-1.53-.07-.26-.12-.47-.15-.6-.01,0-.03,0-.04,0,.03,.14,.06,.35,.09,.6,.06,.5,.08,1.15-.08,1.65l-.29-.1c.15-.46,.12-1.08,.07-1.55-.03-.25-.06-.46-.09-.58-.06,.14-.16,.34-.29,.58-.23,.43-.57,1-1.01,1.53h0c-.36,.43-.77,.85-1.24,1.16-.22,.15-.44,.24-.67,.27l-1.71,2.33,3.68,1.45s.09,.06,.21,.09c.1,.03,.22,.04,.36,0Z"/><path class="d" d="M8.02,6.64c-.21-.28-.38-.55-.47-.71l-.04,.02c.03,.13,.08,.37,.17,.68,.24,.87,.73,2.32,1.58,3.64,.06,.09,.11,.17,.16,.25,.36,.56,.59,.93,.87,.98,.03,0,.06,0,.09,0,.16,0,.35-.09,.6-.27,.8-.58,1.89-2.17,2.19-2.64-.23-.16-.7-.52-.96-.93-.09,.02-.19,.03-.29,.03-.15,0-.32-.02-.5-.06-1.31-.27-2.98-1.64-3.44-2.04-.05,.06-.11,.12-.17,.17,.15,.25,.39,.62,.67,.94,.25,.3,.54,.55,.79,.63l-.09,.29c-.41-.13-.83-.58-1.16-1Z"/><path class="d" d="M9.79,3.42l.25,.17c-.52,.75-1.43,.99-1.82,1.06v.04c.08,.22,.04,.44-.06,.64,.41,.35,2.09,1.74,3.33,2,1.33,.28,1.82-.76,2.1-1.7,.19-.63-.25-1.89-1.22-3.54-.53-.91-1.32-1.29-1.99-.98-.67,.31-2.27,1.96-2.71,2.41,.21,.21,.35,.53,.46,.84,.32-.05,1.19-.26,1.66-.94Z"/></g></g></g></svg>